<?xml version="1.0" encoding="UTF-8"?><svg id="_레이어_1" xmlns="http://www.w3.org/2000/svg" width="595.83" height="74.99" viewBox="0 0 595.83 74.99"><path d="M59.77,31.08c-3.28-14.58-14.96-24.34-29.73-24.83-2.37-.08-7.94,0-8,0H0v68.73h20.45c4.84,0,8.7-.09,11.47-.28,9.86-.66,17.97-5.57,23.44-14.21,5.43-8.58,6.92-18.34,4.42-29.42ZM45.62,54.9c-3.66,5.71-9.24,8.81-16.57,9.19-1.46.08-3.49.11-6.02.11h-11.88V17h14.67c2.04,0,3.81.1,5.4.29,8.96,1.09,14.99,6.56,17.44,15.82,2.14,8.12,1.13,15.33-3.03,21.8Z" fill="#231815"/><polygon points="211.43 16.73 211.43 6.25 162.1 6.25 162.1 74.95 173 74.95 173 45.7 207 45.7 207 35.12 173.11 35.12 173.11 16.73 211.43 16.73" fill="#231815"/><polygon points="309.66 6.25 309.66 56.6 268.96 6.25 254.42 6.25 260.75 13.86 260.75 74.95 271.74 74.95 271.74 27.43 310.53 74.95 320.56 74.95 320.56 6.25 309.66 6.25" fill="#231815"/><rect x="228.56" y="6.25" width="10.77" height="68.7" fill="#231815"/><polygon points="87.29 64.4 87.29 45.64 121.2 45.64 121.2 35.09 87.29 35.09 87.29 16.68 125.61 16.68 125.61 6.25 76.29 6.25 76.29 74.95 125.62 74.95 125.62 64.4 87.29 64.4" fill="#231815"/><polygon points="351.26 64.4 351.26 45.64 385.16 45.64 385.16 35.09 351.26 35.09 351.26 16.68 389.58 16.68 389.58 6.25 340.25 6.25 340.25 74.95 389.59 74.95 389.59 64.4 351.26 64.4" fill="#231815"/><rect x="142.77" width="4.02" height="36.11" fill="#231815"/><path d="M441.54,47.31c0,10.58-5.21,17.21-12.24,17.21s-12.24-6.62-12.24-17.21,5.16-17.1,12.24-17.1,12.24,6.57,12.24,17.1ZM435.12,47.31c0-7.09-2.38-10.9-5.82-10.9s-5.82,3.81-5.82,10.9,2.33,10.95,5.82,10.95,5.82-3.81,5.82-10.95ZM460.05,50.65h-6.78v24.25h-6.68V26.88h6.68v18.09h6.78v5.68Z" fill="#231815"/><path d="M504.25,63.84v5.63h-42.17v-5.63h42.17ZM492.92,35.58h-26.04v-5.47h32.62v16.01h-25.94v5.37h27v5.47h-33.63v-16.21h25.99v-5.16Z" fill="#231815"/><path d="M516.49,58.52c6.93-.05,12.54-.31,18.91-1.3l.61,5.47c-7.28,1.15-13.8,1.36-22.15,1.36h-4.05V30.84h23.56v5.58h-16.89v7.82h14.97v5.37h-14.97v8.92ZM546.12,26.88v48.07h-6.73V26.88h6.73Z" fill="#231815"/><path d="M577.32,47.31c0,10.58-5.21,17.21-12.24,17.21s-12.24-6.62-12.24-17.21,5.16-17.1,12.24-17.1,12.24,6.57,12.24,17.1ZM570.9,47.31c0-7.09-2.38-10.9-5.82-10.9s-5.82,3.81-5.82,10.9,2.33,10.95,5.82,10.95,5.82-3.81,5.82-10.95ZM595.83,50.65h-6.78v24.25h-6.67V26.88h6.67v18.09h6.78v5.68Z" fill="#231815"/></svg>